<?xml version="1.0" encoding="UTF-8"?>
<svg version="1.1" xmlns="http://www.w3.org/2000/svg" width="48" height="48">
<path d="M0 0 C4.66615805 2.88158436 8.82701787 6.42567369 10.234375 11.89453125 C11.3331169 24.38023464 11.3331169 24.38023464 8.234375 29.89453125 C7.89979602 33.99312371 7.90901437 35.4064903 10.234375 38.89453125 C10.234375 39.88453125 10.234375 40.87453125 10.234375 41.89453125 C7.921875 41.70703125 7.921875 41.70703125 5.234375 40.89453125 C3.421875 38.33203125 3.421875 38.33203125 2.234375 35.89453125 C1.54859375 36.37792969 0.8628125 36.86132812 0.15625 37.359375 C-5.19292625 40.16983792 -10.89287629 39.68884981 -16.765625 38.89453125 C-21.93834099 36.84001589 -26.71274598 33.2755571 -29.16796875 28.13671875 C-30.82787266 21.90936682 -31.07060205 15.1592795 -28.66015625 9.12890625 C-22.31706799 -1.14247527 -11.44569305 -4.57504397 0 0 Z " fill="#4E2D2D" transform="translate(33.765625,3.10546875)"/>
<path d="M0 0 C1.32278481 5.41139241 1.32278481 5.41139241 -0.0625 7.9375 C-2.91093248 9.49954362 -4.93504903 8.74921024 -8 8 C-9.32278481 2.58860759 -9.32278481 2.58860759 -7.9375 0.0625 C-5.08906752 -1.49954362 -3.06495097 -0.74921024 0 0 Z " fill="#E83434" transform="translate(28,7)"/>
<path d="M0 0 C1.32278481 5.41139241 1.32278481 5.41139241 -0.0625 7.9375 C-2.91093248 9.49954362 -4.93504903 8.74921024 -8 8 C-9.32278481 2.58860759 -9.32278481 2.58860759 -7.9375 0.0625 C-5.08906752 -1.49954362 -3.06495097 -0.74921024 0 0 Z " fill="#E83434" transform="translate(39,18)"/>
<path d="M0 0 C0.66 0.66 1.32 1.32 2 2 C1.625 5.125 1.625 5.125 1 8 C-4.41139241 9.32278481 -4.41139241 9.32278481 -6.9375 7.9375 C-8.52666796 5.03960549 -7.87523205 3.09697496 -7 0 C-4.29393021 -1.35303489 -2.8671629 -0.7884698 0 0 Z " fill="#E93434" transform="translate(27,29)"/>
<path d="M0 0 C1.32278481 5.41139241 1.32278481 5.41139241 -0.0625 7.9375 C-2.91093248 9.49954362 -4.93504903 8.74921024 -8 8 C-9.32278481 2.58860759 -9.32278481 2.58860759 -7.9375 0.0625 C-5.08906752 -1.49954362 -3.06495097 -0.74921024 0 0 Z " fill="#E93434" transform="translate(17,18)"/>
<path d="M0 0 C0.33 0 0.66 0 1 0 C2 4 3 8 4 12 C1.625 11.75 1.625 11.75 -1 11 C-2.66137306 8.81000823 -3.0813873 7.67144523 -2.75 4.9375 C-2 3 -2 3 0 0 Z " fill="#EC3434" transform="translate(40,33)"/>
</svg>
