<?xml version="1.0" encoding="UTF-8"?>
<svg version="1.1" xmlns="http://www.w3.org/2000/svg" width="243" height="110">
<path d="M0 0 C7.4930238 5.78488767 13.18576814 13.56599431 15 23 C15.68157334 31.3230591 14.37542109 37.99911349 10.8125 45.5 C9.5722399 49.31618493 9.3576947 53.03413823 10 57 C11.91666921 59.25065102 11.91666921 59.25065102 14 61 C14.3125 63.6875 14.3125 63.6875 14 66 C13 67 13 67 10.75 67.375 C6.80631415 66.83722466 5.52550757 64.99073265 3 62 C1.94712186 60.36622358 0.9272999 58.70818403 0 57 C-0.639375 57.433125 -1.27875 57.86625 -1.9375 58.3125 C-10.37403897 62.96120514 -19.21133003 64.73390272 -28.70703125 62.30859375 C-37.7575053 58.98591587 -45.17064211 53.42504803 -50 45 C-54.01535115 36.02985706 -54.43509997 26.40333468 -51.25 17.125 C-47.53713317 8.1080377 -41.79559681 1.39779841 -33 -3 C-22.1540948 -7.38451487 -9.89808774 -6.00054044 0 0 Z " fill="#4A2B2B" transform="translate(65,27)"/>
<path d="M0 0 C0.495 1.485 0.495 1.485 1 3 C-0.98 3.99 -0.98 3.99 -3 5 C-3 4.34 -3 3.68 -3 3 C-3.66 3 -4.32 3 -5 3 C-4.94199219 3.96421875 -4.88398437 4.9284375 -4.82421875 5.921875 C-4.77910156 7.18515625 -4.73398437 8.4484375 -4.6875 9.75 C-4.62949219 11.00296875 -4.57148437 12.2559375 -4.51171875 13.546875 C-5 17 -5 17 -7.38671875 19.42578125 C-10 21 -10 21 -12.125 21.4375 C-14.24175934 21.8739854 -14.24175934 21.8739854 -15.6875 24.1875 C-17.07652628 27.16398488 -17.62204468 29.74958422 -18 33 C-18.66 33 -19.32 33 -20 33 C-20 33.99 -20 34.98 -20 36 C-20.66 36 -21.32 36 -22 36 C-22.33 36.99 -22.66 37.98 -23 39 C-23.55816406 38.82855469 -24.11632812 38.65710938 -24.69140625 38.48046875 C-27.24982673 37.9480056 -29.33875792 38.10828452 -31.9375 38.3125 C-36.03511301 38.34271839 -36.71889285 38.22947522 -40.0625 35.5 C-42.53293619 31.86393546 -42.77661752 28.31872798 -43 24 C-43.66 24 -44.32 24 -45 24 C-44.91253716 22.56138706 -44.80434652 21.12402492 -44.6875 19.6875 C-44.62949219 18.88699219 -44.57148437 18.08648437 -44.51171875 17.26171875 C-43.90631334 14.58591925 -42.99860831 13.80730575 -41 12 C-40.505 10.96875 -40.01 9.9375 -39.5 8.875 C-38 6 -38 6 -35 5 C-35 4.34 -35 3.68 -35 3 C-31.63316085 0.56839395 -30.26649636 0 -26 0 C-26 -0.66 -26 -1.32 -26 -2 C-18.17514679 -4.45640962 -7.00930172 -4.50597968 0 0 Z " fill="#542929" transform="translate(60,27)"/>
<path d="M0 0 C7.4930238 5.78488767 13.18576814 13.56599431 15 23 C15.596572 30.2850619 14.76871397 36.26054503 12 43 C11.4121875 44.5159375 11.4121875 44.5159375 10.8125 46.0625 C10.544375 46.701875 10.27625 47.34125 10 48 C9.01 47.505 9.01 47.505 8 47 C8.75 40.25 8.75 40.25 11 38 C13.09776818 29.39915045 12.15408193 22.13851192 9 14 C8.505 12.515 8.505 12.515 8 11 C7.4225 10.71125 6.845 10.4225 6.25 10.125 C3.20774755 8.60387378 1.26157493 6.51286104 -1 4 C-1 3.34 -1 2.68 -1 2 C-2.65984798 1.31653318 -4.32836805 0.65411685 -6 0 C-7.2684375 -0.5259375 -7.2684375 -0.5259375 -8.5625 -1.0625 C-13.06928071 -2.29162201 -17.23051704 -2.21593114 -21.875 -2.125 C-22.75414063 -2.11597656 -23.63328125 -2.10695313 -24.5390625 -2.09765625 C-26.6928271 -2.07424577 -28.84645014 -2.0383801 -31 -2 C-31 -1.34 -31 -0.68 -31 0 C-33.97 0.99 -36.94 1.98 -40 3 C-40 3.66 -40 4.32 -40 5 C-41.33333333 6.33333333 -42.66666667 7.66666667 -44 9 C-45.23512079 11.13309192 -45.23512079 11.13309192 -46 13 C-46.66 13 -47.32 13 -48 13 C-48.33 16.3 -48.66 19.6 -49 23 C-48.34 23.33 -47.68 23.66 -47 24 C-46.87625 25.2375 -46.7525 26.475 -46.625 27.75 C-46.2954513 30.61295429 -45.85443078 32.31760558 -44.625 35 C-40.46165975 38.17206877 -36.05148813 37.3919258 -31 37 C-31 37.66 -31 38.32 -31 39 C-29.515 39.495 -29.515 39.495 -28 40 C-28.06960937 40.67546875 -28.13921875 41.3509375 -28.2109375 42.046875 C-28.37778464 44.79588019 -28.40532505 47.27365574 -28 50 C-25.5924879 52.91057728 -25.5924879 52.91057728 -22 54 C-17.36785732 53.83456633 -13.33612109 52.58638577 -9 51 C-10.65 53.64 -12.3 56.28 -14 59 C-9.545 58.505 -9.545 58.505 -5 58 C-5 57.34 -5 56.68 -5 56 C-3.68 56 -2.36 56 -1 56 C-2 59 -2 59 -4.30078125 60.16796875 C-14.50355552 63.62182619 -23.65687271 64.85518334 -33.6875 60.2578125 C-42.18127581 55.63788714 -48.67135885 49.54800966 -51.875 40.25 C-54.8243267 28.71760279 -52.82455065 18.98969601 -47.1875 8.6875 C-35.31322509 -5.90089489 -16.48239383 -9.99215943 0 0 Z " fill="#452D2C" transform="translate(65,27)"/>
<path d="M0 0 C7.4930238 5.78488767 13.18576814 13.56599431 15 23 C15.596572 30.2850619 14.76871397 36.26054503 12 43 C11.4121875 44.5159375 11.4121875 44.5159375 10.8125 46.0625 C10.544375 46.701875 10.27625 47.34125 10 48 C9.01 47.505 9.01 47.505 8 47 C8.75 40.25 8.75 40.25 11 38 C13.09776818 29.39915045 12.15408193 22.13851192 9 14 C8.505 12.515 8.505 12.515 8 11 C7.4225 10.71125 6.845 10.4225 6.25 10.125 C3.20774755 8.60387378 1.26157493 6.51286104 -1 4 C-1 3.34 -1 2.68 -1 2 C-2.65984798 1.31653318 -4.32836805 0.65411685 -6 0 C-7.2684375 -0.5259375 -7.2684375 -0.5259375 -8.5625 -1.0625 C-13.06928071 -2.29162201 -17.23051704 -2.21593114 -21.875 -2.125 C-22.75414063 -2.11597656 -23.63328125 -2.10695313 -24.5390625 -2.09765625 C-26.6928271 -2.07424577 -28.84645014 -2.0383801 -31 -2 C-31 -1.34 -31 -0.68 -31 0 C-33.97 0.99 -36.94 1.98 -40 3 C-40 3.66 -40 4.32 -40 5 C-41.33333333 6.33333333 -42.66666667 7.66666667 -44 9 C-45.23512079 11.13309192 -45.23512079 11.13309192 -46 13 C-46.66 13 -47.32 13 -48 13 C-50.70776842 23.9277797 -50.70776842 34.0722203 -48 45 C-47.01 45.33 -46.02 45.66 -45 46 C-44.66666667 47.33333333 -44.33333333 48.66666667 -44 50 C-43.01 50.33 -42.02 50.66 -41 51 C-41 51.66 -41 52.32 -41 53 C-39.68 53.33 -38.36 53.66 -37 54 C-37 54.66 -37 55.32 -37 56 C-26.97053919 60.25492277 -18.36581243 61.38475508 -8 58 C-7.01 58 -6.02 58 -5 58 C-5 57.34 -5 56.68 -5 56 C-3.68 56 -2.36 56 -1 56 C-2 59 -2 59 -4.30078125 60.16796875 C-14.50355552 63.62182619 -23.65687271 64.85518334 -33.6875 60.2578125 C-42.18127581 55.63788714 -48.67135885 49.54800966 -51.875 40.25 C-54.8243267 28.71760279 -52.82455065 18.98969601 -47.1875 8.6875 C-35.31322509 -5.90089489 -16.48239383 -9.99215943 0 0 Z " fill="#261616" transform="translate(65,27)"/>
<path d="M0 0 C0.99 0.66 1.98 1.32 3 2 C3 2.66 3 3.32 3 4 C3.66 4 4.32 4 5 4 C5.30788712 7.92556076 5.30854114 10.3957736 3.5 13.9375 C0.63953096 16.29738696 -1.32366903 16.73661074 -5.02734375 16.48046875 C-8.55479057 15.62130844 -10.00100675 13.93602134 -12 11 C-12.625 7.4375 -12.625 7.4375 -12 4 C-8.43427732 -0.2140359 -5.35702996 -0.59522555 0 0 Z " fill="#EE3535" transform="translate(67,48)"/>
<path d="M0 0 C2.26957206 4.06707314 2.72401979 7.41140703 2 12 C0.5625 14.5 0.5625 14.5 -2 16 C-5.04896144 16.42241384 -7.95897691 16.50488028 -11 16 C-13.73387112 13.26612888 -13.82254173 11.0322948 -14.14453125 7.265625 C-14 5 -14 5 -12.125 1.9375 C-7.96672637 -0.64062965 -4.76369856 -0.46702927 0 0 Z " fill="#F03532" transform="translate(52,30)"/>
<path d="M0 0 C2.32536063 3.48804095 2.33457898 4.90140754 2 9 C1.12351036 11.62946893 0.46897926 12.67656602 -1.8125 14.25 C-4.48888707 15.16761843 -6.18554832 15.41187098 -9 15 C-11.64971542 13.19337585 -13.55620529 11.88758942 -15 9 C-15.4375 6.125 -15.4375 6.125 -15 3 C-10.55465966 -1.44534034 -5.81938954 -1.94367611 0 0 Z " fill="#EF3533" transform="translate(52,67)"/>
<path d="M0 0 C0.66 0.33 1.32 0.66 2 1 C2 1.66 2 2.32 2 3 C2.66 3 3.32 3 4 3 C4.25 10.625 4.25 10.625 2 14 C-4.8015 15.561 -4.8015 15.561 -8.9375 13.625 C-11 12 -11 12 -12 11 C-12.70119522 3.87118194 -12.70119522 3.87118194 -9.9375 0.4375 C-6.15490948 -1.41355493 -4.03332301 -0.98930565 0 0 Z " fill="#E03535" transform="translate(32,49)"/>
<path d="M0 0 C1.32 0 2.64 0 4 0 C4 8.25 4 16.5 4 25 C-7 26 -7 26 -10.1875 24.125 C-12.60572724 19.95564269 -13.0451655 16.70749337 -12 12 C-9.9375 8.875 -9.9375 8.875 -7 7 C-3.1875 7.1875 -3.1875 7.1875 0 8 C0 5.36 0 2.72 0 0 Z M-6 10 C-8.42520546 12.42520546 -8.68564441 13.62067741 -9 17 C-8.44525427 19.76309357 -8.44525427 19.76309357 -7 22 C-5.11149645 23.07642709 -5.11149645 23.07642709 -3 23 C-2.01 22.34 -1.02 21.68 0 21 C0.43932865 18.86511724 0.43932865 18.86511724 0.3125 16.5 C0.30863281 15.7059375 0.30476562 14.911875 0.30078125 14.09375 C0.18225165 11.78266964 0.18225165 11.78266964 -2 10 C-3.32 10 -4.64 10 -6 10 Z " fill="#FCFCFC" transform="translate(198,46)"/>
<path d="M0 0 C0.33 1.32 0.66 2.64 1 4 C-2.3 4 -5.6 4 -9 4 C-9 6.31 -9 8.62 -9 11 C-5.7 11 -2.4 11 1 11 C0.67 12.32 0.34 13.64 0 15 C-2.97 15 -5.94 15 -9 15 C-9 17.97 -9 20.94 -9 24 C-10.32 24 -11.64 24 -13 24 C-13 16.41 -13 8.82 -13 1 C-6.565 0.505 -6.565 0.505 0 0 Z " fill="#FDFDFD" transform="translate(155,47)"/>
<path d="M0 0 C2.9375 0.625 2.9375 0.625 5.3125 2.8125 C6.9375 5.625 6.9375 5.625 6.9375 10.625 C2.9775 10.625 -0.9825 10.625 -5.0625 10.625 C-3.58063453 14.75792639 -3.58063453 14.75792639 -0.6875 15.4375 C1.83328951 15.61755639 3.5578624 15.41821253 5.9375 14.625 C5.9375 15.945 5.9375 17.265 5.9375 18.625 C-1.2863041 19.97181093 -1.2863041 19.97181093 -5 18.3125 C-7.27954836 16.44741498 -7.93799271 15.53034588 -8.3359375 12.63671875 C-8.52574732 8.29299395 -8.48588161 6.23516762 -5.9375 2.5625 C-3.0625 0.625 -3.0625 0.625 0 0 Z M-3.875 5 C-5.1608361 6.42412264 -5.1608361 6.42412264 -5.0625 7.625 C-2.4225 7.625 0.2175 7.625 2.9375 7.625 C2.9375 6.635 2.9375 5.645 2.9375 4.625 C-0.66939878 3.41601556 -0.66939878 3.41601556 -3.875 5 Z " fill="#FCFCFC" transform="translate(214.0625,52.375)"/>
<path d="M0 0 C0.78375 0.04125 1.5675 0.0825 2.375 0.125 C2.23404936 1.7504308 2.08707913 3.37534051 1.9375 5 C1.85628906 5.90492187 1.77507813 6.80984375 1.69140625 7.7421875 C1.375 10.125 1.375 10.125 0.375 12.125 C1.509375 12.393125 2.64375 12.66125 3.8125 12.9375 C5.5759375 13.5253125 5.5759375 13.5253125 7.375 14.125 C8.24609162 16.73827485 8.56379799 18.43211171 8.625 21.125 C8.65078125 21.805625 8.6765625 22.48625 8.703125 23.1875 C8.28299002 25.66829705 7.26436477 26.53395598 5.375 28.125 C5.45878906 27.42632812 5.54257812 26.72765625 5.62890625 26.0078125 C5.73074219 25.09773438 5.83257812 24.18765625 5.9375 23.25 C6.04191406 22.34507813 6.14632812 21.44015625 6.25390625 20.5078125 C6.57174852 18.10846943 6.57174852 18.10846943 5.375 16.125 C1.20782547 14.97988799 -2.55932017 14.79877148 -6.6875 16.0625 C-8.94684582 18.46761007 -8.91492569 19.12952232 -8.9375 22.3125 C-8.7828125 24.1996875 -8.7828125 24.1996875 -8.625 26.125 C-9.285 25.795 -9.945 25.465 -10.625 25.125 C-10.67937607 23.54205218 -10.71796271 21.95855744 -10.75 20.375 C-10.77320313 19.49328125 -10.79640625 18.6115625 -10.8203125 17.703125 C-10.61639502 15.0114142 -9.99051721 13.42595026 -8.625 11.125 C-7.965 11.125 -7.305 11.125 -6.625 11.125 C-6.625 10.135 -6.625 9.145 -6.625 8.125 C-5.965 8.125 -5.305 8.125 -4.625 8.125 C-4.66625 7.17625 -4.7075 6.2275 -4.75 5.25 C-4.59228884 1.307221 -4.03287388 0.19204161 0 0 Z " fill="#5E2D2B" transform="translate(46.625,51.875)"/>
<path d="M0 0 C4.29 0 8.58 0 13 0 C13 0.99 13 1.98 13 3 C9.7 3 6.4 3 3 3 C3 5.31 3 7.62 3 10 C6.3 10 9.6 10 13 10 C13 11.32 13 12.64 13 14 C9.7 14 6.4 14 3 14 C3 16.97 3 19.94 3 23 C2.01 23 1.02 23 0 23 C0 15.41 0 7.82 0 0 Z " fill="#FBFBFB" transform="translate(93,48)"/>
<path d="M0 0 C1.32 0.33 2.64 0.66 4 1 C4.33 0.67 4.66 0.34 5 0 C11.23490601 -0.46184489 11.23490601 -0.46184489 13.71484375 1.03515625 C15.70058694 4.07111012 15.31480828 7.19141872 15.1875 10.6875 C15.17396484 11.38939453 15.16042969 12.09128906 15.14648438 12.81445312 C15.11120182 14.54329829 15.05739583 16.27174765 15 18 C14.01 18 13.02 18 12 18 C11.93941406 17.15695313 11.87882813 16.31390625 11.81640625 15.4453125 C11.73261719 14.34960938 11.64882812 13.25390625 11.5625 12.125 C11.48128906 11.03445312 11.40007812 9.94390625 11.31640625 8.8203125 C11.16998297 6.05271029 11.16998297 6.05271029 10 4 C8.02 4 6.04 4 4 4 C3.67 8.62 3.34 13.24 3 18 C2.01 18 1.02 18 0 18 C0 12.06 0 6.12 0 0 Z " fill="#FBFBFB" transform="translate(167,53)"/>
<path d="M0 0 C1.65 0 3.3 0 5 0 C5.25394531 0.61488281 5.50789063 1.22976562 5.76953125 1.86328125 C6.11371094 2.67152344 6.45789063 3.47976562 6.8125 4.3125 C7.14894531 5.11300781 7.48539062 5.91351563 7.83203125 6.73828125 C8.98903182 8.97876062 10.23444695 10.24445008 12 12 C12.25 14.625 12.25 14.625 12 17 C11 18 11 18 8.75 18.375 C4.83917737 17.84170601 3.48083857 15.96322385 1 13 C-0.00496852 9.98509443 -0.10335303 7.95818308 -0.0625 4.8125 C-0.05347656 3.91144531 -0.04445313 3.01039062 -0.03515625 2.08203125 C-0.02355469 1.39496094 -0.01195313 0.70789063 0 0 Z " fill="#852322" transform="translate(67,76)"/>
<path d="M0 0 C3.79588866 0.54226981 5.47211993 2.20127563 8 5 C8.598125 4.175 9.19625 3.35 9.8125 2.5 C10.534375 1.675 11.25625 0.85 12 0 C12.99 0 13.98 0 15 0 C13.87548273 2.9719385 12.77706209 5.33440687 11 8 C11.32996679 11.40965687 12.96185073 13.34154443 15 16 C15 16.66 15 17.32 15 18 C13.68 18 12.36 18 11 18 C8.75 15.5 8.75 15.5 7 13 C6.608125 13.825 6.21625 14.65 5.8125 15.5 C5.214375 16.325 4.61625 17.15 4 18 C1.3125 18.3125 1.3125 18.3125 -1 18 C-0.42378906 17.22076172 -0.42378906 17.22076172 0.1640625 16.42578125 C1.61577311 14.32584692 2.90974897 12.30978085 4 10 C3.58612501 7.25696427 3.58612501 7.25696427 2 5 C1.33333333 3.33333333 0.66666667 1.66666667 0 0 Z " fill="#FCFCFC" transform="translate(124,53)"/>
<path d="M0 0 C1.45947705 0.06006078 2.91779272 0.1488689 4.375 0.25 C5.59316406 0.31960937 5.59316406 0.31960937 6.8359375 0.390625 C9 1 9 1 10.2890625 3.046875 C10.52367188 3.69140625 10.75828125 4.3359375 11 5 C9.02 5.99 9.02 5.99 7 7 C7 6.34 7 5.68 7 5 C6.34 5 5.68 5 5 5 C5.04640625 5.97582031 5.0928125 6.95164062 5.140625 7.95703125 C5.19476563 9.86548828 5.19476563 9.86548828 5.25 11.8125 C5.29640625 13.07707031 5.3428125 14.34164062 5.390625 15.64453125 C5 19 5 19 3.28125 20.9375 C0.70953977 22.13528285 -0.93016691 22.3119044 -3.75 22.1875 C-4.94882812 22.14689453 -4.94882812 22.14689453 -6.171875 22.10546875 C-6.77515625 22.07066406 -7.3784375 22.03585938 -8 22 C-8 21.67 -8 21.34 -8 21 C-6.01432292 20.77213542 -4.02864583 20.54427083 -2.04296875 20.31640625 C0.19396393 20.02829265 0.19396393 20.02829265 3 19 C3.027193 17.41676312 3.04648306 15.83338938 3.0625 14.25 C3.07410156 13.36828125 3.08570312 12.4865625 3.09765625 11.578125 C3.00826198 9.2181162 2.66912821 7.25501476 2 5 C0.56208484 5.14168137 -0.8753237 5.28851043 -2.3125 5.4375 C-3.11300781 5.51871094 -3.91351563 5.59992187 -4.73828125 5.68359375 C-7.16087179 5.95265693 -7.16087179 5.95265693 -10 7 C-10.2165625 8.918125 -10.2165625 8.918125 -10.4375 10.875 C-10.70642746 13.25692894 -10.92226346 14.84452691 -12 17 C-13 16 -13 16 -13.09765625 13.71484375 C-13.08605469 12.79832031 -13.07445312 11.88179687 -13.0625 10.9375 C-13.05347656 10.01839844 -13.04445312 9.09929688 -13.03515625 8.15234375 C-13.02355469 7.44207031 -13.01195312 6.73179688 -13 6 C-8.93577546 3.77435323 -5.54405263 2.7397295 -1 2 C-0.67 1.34 -0.34 0.68 0 0 Z " fill="#5B2726" transform="translate(50,25)"/>
<path d="M0 0 C2.32536063 3.48804095 2.33457898 4.90140754 2 9 C1.12351036 11.62946893 0.46897926 12.67656602 -1.8125 14.25 C-4.48888707 15.16761843 -6.18554832 15.41187098 -9 15 C-11.64971542 13.19337585 -13.55620529 11.88758942 -15 9 C-15.4375 6.125 -15.4375 6.125 -15 3 C-10.55465966 -1.44534034 -5.81938954 -1.94367611 0 0 Z M-12 3 C-12.32728047 6.60008519 -12.40422813 8.41611492 -10.3125 11.4375 C-8.08190192 13.29977201 -8.08190192 13.29977201 -5.25 12.75 C-4.5075 12.5025 -3.765 12.255 -3 12 C-3 11.34 -3 10.68 -3 10 C-2.01 9.67 -1.02 9.34 0 9 C-0.33 6.69 -0.66 4.38 -1 2 C-6.77786722 0.80215775 -6.77786722 0.80215775 -12 3 Z " fill="#B83639" transform="translate(52,67)"/>
<path d="M0 0 C1.32 0.33 2.64 0.66 4 1 C4.33 0.67 4.66 0.34 5 0 C6.66617115 -0.04063832 8.33388095 -0.042721 10 0 C10 0.99 10 1.98 10 3 C8.7934375 3.4640625 8.7934375 3.4640625 7.5625 3.9375 C5.10919595 4.76335345 5.10919595 4.76335345 4 6 C3.76572222 8.01594582 3.58663876 10.038474 3.4375 12.0625 C3.31181641 13.71958984 3.31181641 13.71958984 3.18359375 15.41015625 C3.12300781 16.26480469 3.06242188 17.11945313 3 18 C2.01 18 1.02 18 0 18 C0 12.06 0 6.12 0 0 Z " fill="#FCFCFC" transform="translate(225,53)"/>
<path d="M0 0 C0.99 0 1.98 0 3 0 C3 8.25 3 16.5 3 25 C2.01 25 1.02 25 0 25 C0 16.75 0 8.5 0 0 Z " fill="#F9F9F9" transform="translate(109,46)"/>
<path d="M0 0 C1.32 0 2.64 0 4 0 C4 5.94 4 11.88 4 18 C2.68 18 1.36 18 0 18 C0 12.06 0 6.12 0 0 Z " fill="#FAFAFA" transform="translate(117,53)"/>
<path d="M0 0 C2.26957206 4.06707314 2.72401979 7.41140703 2 12 C0.5625 14.5 0.5625 14.5 -2 16 C-5.04896144 16.42241384 -7.95897691 16.50488028 -11 16 C-13.73387112 13.26612888 -13.82254173 11.0322948 -14.14453125 7.265625 C-14 5 -14 5 -12.125 1.9375 C-7.96672637 -0.64062965 -4.76369856 -0.46702927 0 0 Z M-10.375 3.0625 C-12.34116018 6.61671263 -12.31390173 8.997753 -12 13 C-11.34 13 -10.68 13 -10 13 C-10 13.66 -10 14.32 -10 15 C-4.99406458 15.41953254 -4.99406458 15.41953254 -0.5625 13.375 C1.45932313 10.30182885 1.52755517 8.61752119 1 5 C0.02896212 2.53813421 0.02896212 2.53813421 -2 1 C-5.91295189 0.25071134 -7.34249222 0.4290064 -10.375 3.0625 Z " fill="#B63336" transform="translate(52,30)"/>
<path d="M0 0 C0 2.66666667 0 5.33333333 0 8 C2.475 8.99 2.475 8.99 5 10 C5 10.66 5 11.32 5 12 C5.5775 11.67 6.155 11.34 6.75 11 C9 10 9 10 13 10 C13 7.36 13 4.72 13 2 C13.66 2 14.32 2 15 2 C15.30788712 5.92556076 15.30854114 8.3957736 13.5 11.9375 C10.63953096 14.29738696 8.67633097 14.73661074 4.97265625 14.48046875 C1.44520943 13.62130844 -0.00100675 11.93602134 -2 9 C-2.4375 5.3125 -2.4375 5.3125 -2 2 C-1.34 1.34 -0.68 0.68 0 0 Z " fill="#B43535" transform="translate(57,50)"/>
<path d="M0 0 C0.66 0 1.32 0 2 0 C2.17015625 0.60328125 2.3403125 1.2065625 2.515625 1.828125 C3.97411519 6.63803944 5.18362168 9.57841943 9 13 C9 13.99 9 14.98 9 16 C7.68 16 6.36 16 5 16 C1.71423975 12.71423975 0.03506868 9.51666333 -1 5 C-0.625 2.125 -0.625 2.125 0 0 Z " fill="#D13435" transform="translate(69,77)"/>
<path d="M0 0 C0.99 0.66 1.98 1.32 3 2 C3 2.66 3 3.32 3 4 C1.68 3.67 0.36 3.34 -1 3 C-1 2.34 -1 1.68 -1 1 C-2.32 1 -3.64 1 -5 1 C-5.66 2.32 -6.32 3.64 -7 5 C-6.34 5.33 -5.68 5.66 -5 6 C-5 7.32 -5 8.64 -5 10 C-5.66 10 -6.32 10 -7 10 C-7 10.66 -7 11.32 -7 12 C-8.32 11.34 -9.64 10.68 -11 10 C-11.19990835 6.40164967 -10.96808719 4.06146896 -9 1 C-5.98131566 -0.50934217 -3.32702771 -0.17510672 0 0 Z " fill="#D93835" transform="translate(67,48)"/>
<path d="M0 0 C0.99 0 1.98 0 3 0 C3 5.94 3 11.88 3 18 C2.01 18 1.02 18 0 18 C0 12.06 0 6.12 0 0 Z " fill="#FCFCFC" transform="translate(159,53)"/>
<path d="M0 0 C1.21236328 0.01353516 1.21236328 0.01353516 2.44921875 0.02734375 C3.37154297 0.04474609 3.37154297 0.04474609 4.3125 0.0625 C4.3125 0.3925 4.3125 0.7225 4.3125 1.0625 C2.29427083 1.51822917 0.27604167 1.97395833 -1.7421875 2.4296875 C-3.89469964 2.96724428 -3.89469964 2.96724428 -5.6875 5.0625 C-6.11711121 8.92900087 -6.2941823 11.17581049 -4.0625 14.4375 C-1.24904387 16.3624963 0.9458163 16.75643785 4.3125 17.0625 C4.3125 17.3925 4.3125 17.7225 4.3125 18.0625 C0.22194253 18.46353505 -2.05304971 18.44047038 -5.625 16.3125 C-8.73354785 11.41418217 -8.09298806 6.71230028 -7.6875 1.0625 C-4.80538698 0.10179566 -2.98899956 -0.04331883 0 0 Z " fill="#682928" transform="translate(61.6875,46.9375)"/>
<path d="M0 0 C3 1 3 1 5 4 C5.45667063 7.5772533 5.43777431 9.33458305 3.4375 12.375 C0.18317497 14.54455002 -2.17130414 14.29451507 -6 14 C-6 13.34 -6 12.68 -6 12 C-6.66 11.67 -7.32 11.34 -8 11 C-4.7 11.33 -1.4 11.66 2 12 C2 8.7 2 5.4 2 2 C1.34 2 0.68 2 0 2 C0 1.34 0 0.68 0 0 Z " fill="#DB383C" transform="translate(48,31)"/>
<path d="M0 0 C0.78375 0.04125 1.5675 0.0825 2.375 0.125 C2.41754356 2.12454746 2.41580783 4.12541636 2.375 6.125 C1.375 7.125 1.375 7.125 -1.1875 7.1875 C-2.3940625 7.1565625 -2.3940625 7.1565625 -3.625 7.125 C-4.25 4.75 -4.25 4.75 -4.625 2.125 C-2.625 0.125 -2.625 0.125 0 0 Z " fill="#896C69" transform="translate(46.625,51.875)"/>
<path d="M0 0 C-0.99 0.66 -1.98 1.32 -3 2 C-6.19240449 4.53514474 -6.93171379 5.65856896 -7.75 9.75 C-7.8325 10.8225 -7.915 11.895 -8 13 C-8.66 12.67 -9.32 12.34 -10 12 C-10.23822167 9.14133991 -10.42775712 6.80180916 -10 4 C-6.91722952 0.47683374 -4.64436785 -0.5307849 0 0 Z " fill="#CE3739" transform="translate(30,48)"/>
<path d="M0 0 C1.8871875 0.061875 1.8871875 0.061875 3.8125 0.125 C3.8125 0.455 3.8125 0.785 3.8125 1.125 C1.1725 1.785 -1.4675 2.445 -4.1875 3.125 C-4.4040625 5.043125 -4.4040625 5.043125 -4.625 7 C-4.89392746 9.38192894 -5.10976346 10.96952691 -6.1875 13.125 C-7.85434015 11.45815985 -7.39822764 9.46856931 -7.4375 7.1875 C-7.46328125 6.29160156 -7.4890625 5.39570312 -7.515625 4.47265625 C-7.40734375 3.69792969 -7.2990625 2.92320313 -7.1875 2.125 C-4.09861478 0.06574319 -3.47814073 -0.1140374 0 0 Z " fill="#862C2A" transform="translate(44.1875,28.875)"/>
<path d="M0 0 C0.639375 0.515625 1.27875 1.03125 1.9375 1.5625 C6.18072182 3.55421636 9.49186915 2.81519577 14 2 C13.67 2.99 13.34 3.98 13 5 C11.58344207 5.0272415 10.16672955 5.04650467 8.75 5.0625 C7.56664062 5.07990234 7.56664062 5.07990234 6.359375 5.09765625 C4.09308998 5.00385306 2.1711105 4.63241063 0 4 C0 2.68 0 1.36 0 0 Z " fill="#642B2A" transform="translate(38,78)"/>
<path d="M0 0 C1.11841368 2.08770553 1.9708176 3.85408801 2.4375 6.1875 C2.623125 6.785625 2.80875 7.38375 3 8 C3.99 8.33 4.98 8.66 6 9 C6 9.66 6 10.32 6 11 C7.32 11.33 8.64 11.66 10 12 C6.37267012 12.51818998 5.19995189 12.14663138 2.1875 9.9375 C-0.48534354 6.34825296 -0.42880585 4.37381963 0 0 Z " fill="#91262A" transform="translate(68,82)"/>
<path d="M0 0 C3 1 3 1 4 3 C4.1875 6 4.1875 6 4 9 C3.34 9.66 2.68 10.32 2 11 C1.34 7.37 0.68 3.74 0 0 Z " fill="#B3353A" transform="translate(50,67)"/>
<path d="M0 0 C1.670625 0.37125 1.670625 0.37125 3.375 0.75 C3.705 1.41 4.035 2.07 4.375 2.75 C3.3025 2.729375 2.23 2.70875 1.125 2.6875 C-1.77290424 2.7357984 -3.91112141 2.88155885 -6.625 3.75 C-6.625 3.09 -6.625 2.43 -6.625 1.75 C-3.625 -0.25 -3.625 -0.25 0 0 Z " fill="#D9393F" transform="translate(46.625,66.25)"/>
<path d="M0 0 C0.66 0 1.32 0 2 0 C2.33 1.32 2.66 2.64 3 4 C1.68 4.33 0.36 4.66 -1 5 C-1 1 -1 1 0 0 Z " fill="#BBA2A0" transform="translate(45,53)"/>
<path d="M0 0 C0.33 1.32 0.66 2.64 1 4 C-1.70879335 5.35439668 -4.00933268 5.06501451 -7 5 C-6.401875 4.731875 -5.80375 4.46375 -5.1875 4.1875 C-3.02775192 3.01506533 -1.64209744 1.80630718 0 0 Z " fill="#C83A3E" transform="translate(51,76)"/>
<path d="M0 0 C1.32 0.33 2.64 0.66 4 1 C2.625 2.5 2.625 2.5 1 4 C0.34 4 -0.32 4 -1 4 C-1.33 5.32 -1.66 6.64 -2 8 C-2.20086443 4.28400809 -2.1519437 3.22791555 0 0 Z " fill="#DF383C" transform="translate(58,50)"/>
<path d="M0 0 C1.32 0.33 2.64 0.66 4 1 C3.67 1.99 3.34 2.98 3 4 C2.01 4 1.02 4 0 4 C0 2.68 0 1.36 0 0 Z " fill="#F3F3F3" transform="translate(117,47)"/>
<path d="M0 0 C1.32 0.33 2.64 0.66 4 1 C3.67 1.99 3.34 2.98 3 4 C2.01 4 1.02 4 0 4 C0 2.68 0 1.36 0 0 Z " fill="#F9F9F9" transform="translate(159,47)"/>
</svg>
