<?xml version="1.0" encoding="UTF-8"?>
<svg version="1.1" xmlns="http://www.w3.org/2000/svg" width="645" height="97">
<path d="M0 0 C1.49937695 -0.00435671 2.99875168 -0.00954303 4.49812317 -0.01548767 C8.5394964 -0.02878452 12.58077558 -0.02946691 16.6221664 -0.02692437 C20.00909717 -0.02584849 23.39600939 -0.03075361 26.78293616 -0.03552979 C34.77913325 -0.04659235 42.77528335 -0.04708049 50.77148438 -0.04101562 C58.99274476 -0.03497555 67.21383401 -0.04729518 75.43506521 -0.06858569 C82.52077725 -0.08625393 89.60643506 -0.09219492 96.6921683 -0.08894795 C100.91223188 -0.08714356 105.1321733 -0.08968643 109.35221672 -0.10366249 C113.32258221 -0.11632199 117.29268251 -0.11422083 121.26304436 -0.1012516 C122.71092828 -0.09890399 124.15883135 -0.1015545 125.60669327 -0.10987473 C141.18446122 -0.19286398 154.24575585 2.53094134 165.95336914 13.2590332 C173.50472242 21.47949373 177.3948502 31.47479169 177.30493164 42.5246582 C177.29526367 43.77363892 177.29526367 43.77363892 177.28540039 45.04785156 C176.94153826 56.72219707 172.1134898 66.10740206 163.80493164 74.2746582 C152.29301436 83.40836502 141.06094703 84.7249732 126.78955078 84.67871094 C125.19017564 84.68442291 123.59080456 84.69139036 121.99143982 84.69950867 C117.67318989 84.71736337 113.35514401 84.71628632 109.03686833 84.71056628 C105.42123611 84.70746341 101.80564245 84.71357901 98.19001573 84.71960503 C89.65545273 84.73362325 81.12098989 84.73211138 72.58642578 84.72070312 C63.80446517 84.70922302 55.02280999 84.7233019 46.24088961 84.7500996 C38.67877344 84.77230452 31.11675281 84.77888325 23.55460638 84.77302319 C19.04781011 84.76966404 14.5412096 84.77199907 10.03444099 84.78927422 C5.79481117 84.80481809 1.55563158 84.80070603 -2.68398094 84.78196907 C-4.23226083 84.77830375 -5.78057463 84.78133107 -7.32882309 84.79185486 C-21.22841159 84.87905957 -32.74864885 82.17614743 -43.13256836 72.4621582 C-51.55160358 63.46249987 -55.81364481 52.31338692 -55.50756836 40.01293945 C-54.44718808 30.72135727 -51.06592473 22.51016884 -45.19506836 15.2746582 C-44.69362305 14.64946289 -44.19217773 14.02426758 -43.67553711 13.38012695 C-32.25074266 0.62104994 -15.95583317 -0.03092648 0 0 Z " fill="#1AB7D9" transform="translate(466.195068359375,5.725341796875)"/>
<path d="M0 0 C1.15822266 -0.020625 2.31644531 -0.04125 3.50976562 -0.0625 C5.17362305 -0.07023438 5.17362305 -0.07023438 6.87109375 -0.078125 C8.39947876 -0.09214355 8.39947876 -0.09214355 9.95874023 -0.10644531 C12.5625 0.25 12.5625 0.25 14.26049805 1.36132812 C16.09555799 4.02324894 17.02341775 6.74394302 18.0859375 9.796875 C18.31399078 10.44513245 18.54204407 11.09338989 18.77700806 11.7612915 C19.50528432 13.83812967 20.22142207 15.91892872 20.9375 18 C21.41069143 19.35313302 21.88464318 20.7060004 22.359375 22.05859375 C23.54017137 25.43290774 24.70467438 28.81252101 25.86022949 32.19555664 C26.337072 33.5905261 26.81573233 34.98487524 27.29602051 36.37866211 C28.00686499 38.44353558 28.71134844 40.51047244 29.4140625 42.578125 C30.034021 44.39425293 30.034021 44.39425293 30.66650391 46.24707031 C31.5625 49.25 31.5625 49.25 31.5625 52.25 C32.2225 52.25 32.8825 52.25 33.5625 52.25 C33.79324219 51.03570312 34.02398437 49.82140625 34.26171875 48.5703125 C35.67965376 42.19894167 38.05054444 36.2110562 40.375 30.125 C43.9787765 20.5566427 47.43126383 10.98255972 50.5625 1.25 C55.0204968 1.05383391 59.47890535 0.86952932 63.9375 0.6875 C65.20851563 0.63142578 66.47953125 0.57535156 67.7890625 0.51757812 C69.60664063 0.44506836 69.60664063 0.44506836 71.4609375 0.37109375 C72.58161621 0.3239624 73.70229492 0.27683105 74.85693359 0.22827148 C77.5625 0.25 77.5625 0.25 79.5625 1.25 C79.5625 28.64 79.5625 56.03 79.5625 84.25 C73.2925 84.25 67.0225 84.25 60.5625 84.25 C60.2325 65.44 59.9025 46.63 59.5625 27.25 C57.726875 32.7775 55.89125 38.305 54 44 C46.92719961 65.24041396 46.92719961 65.24041396 43.375 75.4375 C43.09648193 76.24219727 42.81796387 77.04689453 42.53100586 77.87597656 C40.68598079 83.12651921 40.68598079 83.12651921 39.5625 84.25 C37.03200598 84.32313567 34.52945163 84.34247527 32 84.3125 C30.93362305 84.30573242 30.93362305 84.30573242 29.84570312 84.29882812 C28.08459987 84.28700864 26.32353964 84.26907263 24.5625 84.25 C22.65950218 78.68587943 20.75727655 73.12149563 18.85571289 67.55688477 C18.21105935 65.67074758 17.56620843 63.78467785 16.92114258 61.89868164 C13.09004516 50.69711242 9.28275743 39.48893352 5.5625 28.25 C5.56472061 28.86308014 5.56694122 29.47616028 5.56922913 30.1078186 C5.59138451 36.49944475 5.60644942 42.89105994 5.61743164 49.28271484 C5.62245459 51.66683394 5.62927413 54.05094996 5.63793945 56.43505859 C5.65009424 59.86556762 5.65574877 63.29603584 5.66015625 66.7265625 C5.66531754 67.78928375 5.67047882 68.852005 5.67579651 69.94692993 C5.67590981 71.44780655 5.67590981 71.44780655 5.67602539 72.97900391 C5.678246 73.85392487 5.68046661 74.72884583 5.68275452 75.63027954 C5.54989324 78.52463577 5.03883029 81.39201827 4.5625 84.25 C-1.7075 84.25 -7.9775 84.25 -14.4375 84.25 C-14.4375 56.86 -14.4375 29.47 -14.4375 1.25 C-10.20986591 -0.86381704 -4.644912 0.0206097 0 0 Z " fill="#77CAB3" transform="translate(109.4375,5.75)"/>
<path d="M0 0 C5.77997948 -0.09967465 11.55944688 -0.17184583 17.34008789 -0.21972656 C19.30209074 -0.23970918 21.26403505 -0.26690484 23.22583008 -0.30175781 C45.73598107 -0.69134556 45.73598107 -0.69134556 56 5.9375 C60.40326869 10.47837084 62.09958495 15.01943319 62.3125 21.25 C62.23073935 26.22104722 61.00381043 30.01800347 58 34 C55.76143136 35.97492566 53.5588302 37.42533526 51 39 C51.59167969 39.35191406 52.18335938 39.70382813 52.79296875 40.06640625 C58.77504617 43.8039848 63.82808657 47.25801918 65.58984375 54.38671875 C66.47144299 60.85508172 66.22051931 66.56542906 62.62109375 72.1328125 C56.71873376 79.55526985 49.5886104 82.01314774 40.48681641 83.60302734 C32.96214397 84.4597083 25.37462602 84.20175815 17.8125 84.125 C16.08008331 84.11494761 14.34766096 84.10582576 12.61523438 84.09765625 C8.41001414 84.07582749 4.205071 84.04142299 0 84 C-1.17304041 80.48087877 -1.13993548 77.31500505 -1.12939453 73.65454102 C-1.13114685 72.90950317 -1.13289917 72.16446533 -1.13470459 71.39685059 C-1.13910794 68.93251215 -1.13619014 66.46824542 -1.1328125 64.00390625 C-1.13348605 62.2914173 -1.1344565 60.57892844 -1.13571167 58.86643982 C-1.13718665 55.27610362 -1.13504076 51.68579229 -1.13037109 48.09545898 C-1.12467823 43.49420214 -1.12795127 38.89300369 -1.13394356 34.291749 C-1.13755822 30.75473084 -1.13640633 27.21772651 -1.13381577 23.68070793 C-1.13314878 21.98424205 -1.13396694 20.28777491 -1.13629532 18.5913105 C-1.13883619 16.2191244 -1.13496077 13.8470326 -1.12939453 11.47485352 C-1.13141876 10.77394089 -1.13344299 10.07302826 -1.13552856 9.35087585 C-1.12135161 6.08769632 -1.00164805 3.12117859 0 0 Z M19 17 C19 22.28 19 27.56 19 33 C30.47107468 33.72155237 30.47107468 33.72155237 41 30 C42.56430248 26.87139505 42.35627284 24.44397075 42 21 C39.86031555 18.56325674 38.16460412 17.17531384 34.90136719 16.68408203 C32.48444629 16.60649309 30.10350371 16.65084278 27.6875 16.75 C26.43356445 16.77707031 26.43356445 16.77707031 25.15429688 16.8046875 C23.10236772 16.85158874 21.05103244 16.92332589 19 17 Z M19 50 C18.92674832 52.86267567 18.90761795 55.700719 18.9375 58.5625 C18.94201172 59.36880859 18.94652344 60.17511719 18.95117188 61.00585938 C18.96299482 63.00393756 18.98093086 65.00197783 19 67 C22.04221065 67.08132642 25.0822238 67.14065374 28.125 67.1875 C29.40890625 67.22520508 29.40890625 67.22520508 30.71875 67.26367188 C35.90609711 67.32352588 39.5456379 66.97651299 44 64 C46.32749345 60.50875983 46.50299316 59.10777749 46 55 C43.92665004 51.75475658 41.66591673 50.7038456 38.0625 49.75 C27.98802007 47.76125994 27.98802007 47.76125994 19 50 Z " fill="#4CC1C9" transform="translate(316,7)"/>
<path d="M0 0 C1.2168045 -0.00855011 1.2168045 -0.00855011 2.45819092 -0.01727295 C4.18663218 -0.02674828 5.91509172 -0.03326692 7.64355469 -0.03710938 C10.24448284 -0.04668217 12.84457466 -0.07762238 15.4453125 -0.109375 C30.71854059 -0.20829677 44.73197501 1.33720945 56.859375 11.578125 C57.58125 12.444375 58.303125 13.310625 59.046875 14.203125 C59.54832031 14.78835937 60.04976563 15.37359375 60.56640625 15.9765625 C68.10504248 25.25770588 70.02460589 36.47035432 69.046875 48.203125 C66.58224995 60.42766525 61.0581406 68.8651185 51.046875 76.203125 C38.10415 84.52344821 23.49384622 84.63388402 8.671875 84.390625 C7.04949178 84.3755308 5.42709476 84.36185088 3.8046875 84.34960938 C-0.11493316 84.31702467 -4.03387013 84.26551314 -7.953125 84.203125 C-9.15726415 80.59070754 -9.09286396 77.2943266 -9.08251953 73.53466797 C-9.08427185 72.75555054 -9.08602417 71.97643311 -9.08782959 71.17370605 C-9.0922323 68.59755224 -9.08931624 66.02146701 -9.0859375 63.4453125 C-9.08661086 61.65837592 -9.08758115 59.87143944 -9.08883667 58.08450317 C-9.09031138 54.3403435 -9.08816582 50.59620768 -9.08349609 46.85205078 C-9.0777907 42.04199266 -9.08108436 37.23199022 -9.08706856 32.42193413 C-9.09067324 28.73320085 -9.08953616 25.04448089 -9.08694077 21.35574722 C-9.08627166 19.58144245 -9.08709933 17.80713648 -9.08942032 16.0328331 C-9.09194621 13.55945353 -9.08810755 11.08616567 -9.08251953 8.61279297 C-9.08454376 7.8730423 -9.08656799 7.13329163 -9.08865356 6.37112427 C-9.05749936 -1.0331169 -6.63520459 0.03591013 0 0 Z M11.046875 18.203125 C11.046875 33.713125 11.046875 49.223125 11.046875 65.203125 C27.22829721 65.9410994 27.22829721 65.9410994 41.421875 60.015625 C47.63332457 53.36050046 48.72735229 47.6523748 48.42578125 38.546875 C47.71300828 32.25683724 45.42245487 28.26352885 40.921875 23.890625 C31.87033222 16.89711721 22.48267946 18.203125 11.046875 18.203125 Z " fill="#62C6BF" transform="translate(221.953125,6.796875)"/>
<path d="M0 0 C1.21766052 -0.00315216 2.43532104 -0.00630432 3.68988037 -0.009552 C5.64791595 -0.00651566 5.64791595 -0.00651566 7.64550781 -0.00341797 C9.00360125 -0.00409193 10.36169457 -0.00506273 11.7197876 -0.00631714 C14.55750687 -0.00778777 17.39519456 -0.00565865 20.23291016 -0.00097656 C23.87707381 0.00474218 27.52116415 0.00142423 31.16532516 -0.00454903 C33.96533771 -0.00815325 36.76533271 -0.00701708 39.56534576 -0.00442123 C41.56462146 -0.00342711 43.56389782 -0.00647082 45.56317139 -0.009552 C46.76822327 -0.00639984 47.97327515 -0.00324768 49.21484375 0 C50.28120056 0.00079559 51.34755737 0.00159119 52.44622803 0.00241089 C54.84863281 0.12939453 54.84863281 0.12939453 55.84863281 1.12939453 C55.94844495 3.80670833 55.98743157 6.45243628 55.97363281 9.12939453 C55.9775 9.87962891 55.98136719 10.62986328 55.98535156 11.40283203 C55.97524335 17.002784 55.97524335 17.002784 54.84863281 18.12939453 C47.25863281 18.12939453 39.66863281 18.12939453 31.84863281 18.12939453 C31.84863281 39.90939453 31.84863281 61.68939453 31.84863281 84.12939453 C25.24863281 84.12939453 18.64863281 84.12939453 11.84863281 84.12939453 C11.84863281 62.34939453 11.84863281 40.56939453 11.84863281 18.12939453 C4.25863281 18.12939453 -3.33136719 18.12939453 -11.15136719 18.12939453 C-11.15136719 12.51939453 -11.15136719 6.90939453 -11.15136719 1.12939453 C-7.14650568 0.32842223 -4.01949535 0.00298996 0 0 Z " fill="#93D0AC" transform="translate(17.1513671875,5.87060546875)"/>
<path d="M0 0 C1.50866742 -0.00135674 3.01733451 -0.00313821 4.52600098 -0.00531006 C8.60432076 -0.0098511 12.68261511 -0.00810877 16.76093531 -0.00493097 C21.0369031 -0.00239107 25.31286879 -0.00474936 29.58883667 -0.00631714 C36.76593413 -0.00813368 43.94302129 -0.00574562 51.12011719 -0.00097656 C59.41124456 0.00446921 67.70234735 0.00269903 75.99347413 -0.00280297 C83.12233475 -0.00734382 90.25118798 -0.00798 97.38004959 -0.0053643 C101.63345802 -0.00380742 105.88685491 -0.00359172 110.1402626 -0.00690079 C114.1375773 -0.00979375 118.13486035 -0.0077776 122.13217163 -0.00200653 C123.59708478 -0.00068676 125.06200061 -0.00105974 126.52691269 -0.0032692 C128.52999525 -0.00601137 130.53308366 -0.00195931 132.53616333 0.00241089 C133.65589098 0.00278791 134.77561863 0.00316494 135.92927742 0.00355339 C139.04708012 0.12926499 141.98744825 0.54814057 145.05029297 1.12939453 C145.05029297 1.45939453 145.05029297 1.78939453 145.05029297 2.12939453 C144.19515043 2.13362647 143.3400079 2.13785841 142.45895195 2.14221859 C121.65222955 2.2455196 100.84554097 2.35415658 80.03887749 2.46873379 C69.97693916 2.52401372 59.91499728 2.57748711 49.85302734 2.62670898 C41.08310568 2.6696149 32.31320957 2.71590902 23.54332745 2.76627308 C18.89969069 2.7928224 14.25605882 2.81767412 9.61239243 2.83846855 C5.24089104 2.85809775 0.86943806 2.88226011 -3.50201988 2.90988541 C-5.10559774 2.91922263 -6.7091862 2.92690976 -8.31278038 2.93281364 C-10.5046444 2.94113165 -12.69639271 2.95542374 -14.88821411 2.97117615 C-16.11419878 2.9776287 -17.34018345 2.98408125 -18.60331917 2.99072933 C-21.8243917 3.12420181 -24.81021292 3.39264405 -27.94970703 4.12939453 C-28.27970703 4.78939453 -28.60970703 5.44939453 -28.94970703 6.12939453 C-29.27970703 6.45939453 -29.60970703 6.78939453 -29.94970703 7.12939453 C-28.62970703 7.45939453 -27.30970703 7.78939453 -25.94970703 8.12939453 C-29.52615552 9.36739593 -32.28665469 8.87865524 -35.94970703 8.12939453 C-25.83191191 -1.0398573 -12.85272011 -0.01944381 0 0 Z " fill="#B5E5F1" transform="translate(465.94970703125,5.87060546875)"/>
<path d="M0 0 C0 27.39 0 54.78 0 83 C-6.27 83 -12.54 83 -19 83 C-19.33 62.54 -19.66 42.08 -20 21 C-19.34 20.67 -18.68 20.34 -18 20 C-18 40.46 -18 60.92 -18 82 C-12.39 82 -6.78 82 -1 82 C-1 55.27 -1 28.54 -1 1 C-9.91 1 -18.82 1 -28 1 C-28.33 2.65 -28.66 4.3 -29 6 C-28.34 6.33 -27.68 6.66 -27 7 C-28.32 8.32 -29.64 9.64 -31 11 C-32 9 -32 9 -31.44140625 6.8359375 C-31.15136719 6.02382812 -30.86132812 5.21171875 -30.5625 4.375 C-30.27503906 3.55773437 -29.98757812 2.74046875 -29.69140625 1.8984375 C-29.46324219 1.27195312 -29.23507813 0.64546875 -29 0 C-24.9170667 -0.1969993 -20.83364734 -0.38095476 -16.75 -0.5625 C-15.59113281 -0.61857422 -14.43226563 -0.67464844 -13.23828125 -0.73242188 C-12.12324219 -0.78076172 -11.00820312 -0.82910156 -9.859375 -0.87890625 C-8.31975098 -0.94960327 -8.31975098 -0.94960327 -6.74902344 -1.02172852 C-4 -1 -4 -1 0 0 Z " fill="#B6DAD2" transform="translate(189,7)"/>
<path d="M0 0 C0.33 0 0.66 0 1 0 C1.66 2.31 2.32 4.62 3 7 C2.01 7.33 1.02 7.66 0 8 C0.56739868 12.12973628 0.56739868 12.12973628 2 16 C1.01 16 0.02 16 -1 16 C-1 16.66 -1 17.32 -1 18 C-0.34 18.33 0.32 18.66 1 19 C0.67 19.99 0.34 20.98 0 22 C0.66 22 1.32 22 2 22 C2.33 26.29 2.66 30.58 3 35 C2.34 34.34 1.68 33.68 1 33 C0.67 34.98 0.34 36.96 0 39 C-4.44409044 34.55590956 -5.16664445 26.17179738 -5.4375 20.0625 C-5.23807661 13.24886757 -3.04194567 6.08389134 0 0 Z " fill="#6ECCD9" transform="translate(416,28)"/>
<path d="M0 0 C1.8474884 0.00636726 1.8474884 0.00636726 3.7322998 0.01286316 C7.64467744 0.02958126 11.55652949 0.06722213 15.46875 0.10546875 C18.13020079 0.12222423 20.79164665 0.1342112 23.453125 0.14648438 C29.95851098 0.17946239 36.46359292 0.22959377 42.96875 0.29296875 C42.96875 0.62296875 42.96875 0.95296875 42.96875 1.29296875 C42.29302948 1.30327621 41.61730896 1.31358368 40.92111206 1.32420349 C33.88058214 1.43248464 26.84017461 1.54706476 19.79980469 1.6652832 C17.17320316 1.7085628 14.54657477 1.75024276 11.91992188 1.7902832 C8.14184476 1.84815466 4.36390202 1.91180071 0.5859375 1.9765625 C-1.17219772 2.00163124 -1.17219772 2.00163124 -2.96585083 2.02720642 C-4.61688309 2.05712425 -4.61688309 2.05712425 -6.30126953 2.08764648 C-7.26501495 2.10319077 -8.22876038 2.11873505 -9.22171021 2.13475037 C-12.23902536 2.30466956 -15.0821194 2.62539836 -18.03125 3.29296875 C-18.36125 3.95296875 -18.69125 4.61296875 -19.03125 5.29296875 C-19.36125 5.62296875 -19.69125 5.95296875 -20.03125 6.29296875 C-18.71125 6.62296875 -17.39125 6.95296875 -16.03125 7.29296875 C-19.60769848 8.53097015 -22.36819766 8.04222946 -26.03125 7.29296875 C-18.07321759 0.08100188 -10.24550538 -0.13402703 0 0 Z " fill="#5CC6DA" transform="translate(456.03125,6.70703125)"/>
<path d="M0 0 C0.33 0 0.66 0 1 0 C1.66 2.31 2.32 4.62 3 7 C2.01 7.33 1.02 7.66 0 8 C0.56739868 12.12973628 0.56739868 12.12973628 2 16 C1.01 16 0.02 16 -1 16 C-1 16.66 -1 17.32 -1 18 C-0.34 18.33 0.32 18.66 1 19 C0.67 19.99 0.34 20.98 0 22 C0.66 22 1.32 22 2 22 C1.34 23.32 0.68 24.64 0 26 C-2 25 -2 25 -3 23 C-3.15176841 20.42285563 -3.23140137 17.89073522 -3.25 15.3125 C-3.270625 14.61705078 -3.29125 13.92160156 -3.3125 13.20507812 C-3.35078031 8.08030115 -2.28468375 4.58740447 0 0 Z " fill="#2EBBCE" transform="translate(416,28)"/>
<path d="M0 0 C0.33 0 0.66 0 1 0 C1.86286752 3.72539628 2.13474793 7.17881325 2.125 11 C2.12757813 12.010625 2.13015625 13.02125 2.1328125 14.0625 C2.00826727 16.81714744 1.62110865 19.31838803 1 22 C-1.57973922 17.18448679 -2.12435484 13.47161276 -2 8 C-1.34 8 -0.68 8 0 8 C0 5.36 0 2.72 0 0 Z " fill="#96D8D8" transform="translate(289,38)"/>
<path d="M0 0 C0.66 0.33 1.32 0.66 2 1 C1.505 1.556875 1.01 2.11375 0.5 2.6875 C-1.24754367 5.38162983 -1.26218749 6.85375007 -1 10 C-2.36125 10.433125 -2.36125 10.433125 -3.75 10.875 C-6.32202908 11.76531776 -8.61346766 12.71494413 -11 14 C-9.61085525 9.70281047 -7.61968015 7.29312243 -4.375 4.1875 C-3.55773437 3.39730469 -2.74046875 2.60710938 -1.8984375 1.79296875 C-0.95871094 0.90544922 -0.95871094 0.90544922 0 0 Z " fill="#5CC5D4" transform="translate(428,14)"/>
<path d="M0 0 C7.92 0 15.84 0 24 0 C24 0.33 24 0.66 24 1 C16.41 1 8.82 1 1 1 C0.67 2.65 0.34 4.3 0 6 C0.66 6.33 1.32 6.66 2 7 C0.68 8.32 -0.64 9.64 -2 11 C-2.33 10.34 -2.66 9.68 -3 9 C-2.01 6.03 -1.02 3.06 0 0 Z " fill="#9DD4C8" transform="translate(160,7)"/>
<path d="M0 0 C2.5 1.25 2.5 1.25 5 3 C5 4.32 5 5.64 5 7 C6.65 7 8.3 7 10 7 C10.66 9.31 11.32 11.62 12 14 C6.57868595 11.61790746 3.10996781 7.37129487 0.625 2.0625 C0.41875 1.381875 0.2125 0.70125 0 0 Z " fill="#89D3DC" transform="translate(416,67)"/>
<path d="M0 0 C0.33 0.99 0.66 1.98 1 3 C0.34 4.32 -0.32 5.64 -1 7 C-9.25 7 -17.5 7 -26 7 C-26 6.67 -26 6.34 -26 6 C-24.69804687 5.96261719 -23.39609375 5.92523438 -22.0546875 5.88671875 C-20.32809743 5.82103326 -18.60153619 5.75458682 -16.875 5.6875 C-16.0190625 5.66494141 -15.163125 5.64238281 -14.28125 5.61914062 C-9.17273203 5.40301102 -5.41139558 4.85401791 -1 2 C-0.67 1.34 -0.34 0.68 0 0 Z " fill="#A0D6DA" transform="translate(361,68)"/>
<path d="M0 0 C1.98 0 3.96 0 6 0 C6 0.66 6 1.32 6 2 C6.99 2 7.98 2 9 2 C9.33 2.99 9.66 3.98 10 5 C8.02 5.66 6.04 6.32 4 7 C4 6.34 4 5.68 4 5 C2.68 4.67 1.36 4.34 0 4 C0 2.68 0 1.36 0 0 Z " fill="#06B3E2" transform="translate(611,10)"/>
<path d="M0 0 C0.99 0 1.98 0 3 0 C3.33 3.3 3.66 6.6 4 10 C2.35 9.67 0.7 9.34 -1 9 C-0.67 6.03 -0.34 3.06 0 0 Z " fill="#04B1E1" transform="translate(636,31)"/>
<path d="M0 0 C-2.4867421 1.4346589 -4.3116189 2.0488814 -7.1875 2.5 C-8.5796875 2.7475 -8.5796875 2.7475 -10 3 C-10.33 3.66 -10.66 4.32 -11 5 C-11.33 5.33 -11.66 5.66 -12 6 C-10.68 6.33 -9.36 6.66 -8 7 C-11.57644848 8.2380014 -14.33694766 7.74926071 -18 7 C-12.91222709 2.3892058 -7.00679736 -0.65688725 0 0 Z " fill="#8BD6E0" transform="translate(448,7)"/>
<path d="M0 0 C0.66 0.33 1.32 0.66 2 1 C1.360625 1.763125 0.72125 2.52625 0.0625 3.3125 C-2.14232781 5.88246713 -2.14232781 5.88246713 -3 9 C-5 7.6875 -5 7.6875 -7 6 C-7 5.01 -7 4.02 -7 3 C-4.69631264 1.93347808 -2.35981813 0.93578995 0 0 Z " fill="#2CB9CF" transform="translate(444,8)"/>
<path d="M0 0 C2.475 0.495 2.475 0.495 5 1 C4.67 2.32 4.34 3.64 4 5 C8.29 5.33 12.58 5.66 17 6 C17 6.33 17 6.66 17 7 C12.05 7 7.1 7 2 7 C1.34 4.69 0.68 2.38 0 0 Z " fill="#ABD8CB" transform="translate(132,83)"/>
<path d="M0 0 C1.60938465 2.41407698 2.65490738 4.34044437 3.6875 7 C3.95949219 7.680625 4.23148438 8.36125 4.51171875 9.0625 C5 11 5 11 4 14 C2.5 12.75 2.5 12.75 1 11 C1 9.68 1 8.36 1 7 C0.34 6.67 -0.32 6.34 -1 6 C-1 6.66 -1 7.32 -1 8 C-1.66 7.67 -2.32 7.34 -3 7 C-2.01 4.69 -1.02 2.38 0 0 Z " fill="#A9D9CB" transform="translate(126,15)"/>
<path d="M0 0 C3.63 0.66 7.26 1.32 11 2 C11.33 3.65 11.66 5.3 12 7 C7.39104317 5.68315519 3.85859765 3.84801255 0 1 C0 0.67 0 0.34 0 0 Z " fill="#7CCEDA" transform="translate(428,81)"/>
<path d="M0 0 C1.98 0 3.96 0 6 0 C4.4169423 4.2742558 1.49431596 6.26531794 -2 9 C-2.66 8.67 -3.32 8.34 -4 8 C-3.67 7.34 -3.34 6.68 -3 6 C-2.01 6 -1.02 6 0 6 C1.01111093 2.95086772 1.01111093 2.95086772 0 0 Z " fill="#85CFD6" transform="translate(373,77)"/>
<path d="M0 0 C0.66 0 1.32 0 2 0 C2.66 1.32 3.32 2.64 4 4 C2.38405168 6.04119788 0.7143618 8.04072937 -1 10 C-1.66 10 -2.32 10 -3 10 C-2.67 8.68 -2.34 7.36 -2 6 C-1.34 6 -0.68 6 0 6 C0 4.02 0 2.04 0 0 Z " fill="#4EC2E6" transform="translate(631,70)"/>
<path d="M0 0 C1.21386936 3.64160808 0.6674695 4.33165469 -0.9375 7.6875 C-1.31777344 8.49574219 -1.69804688 9.30398437 -2.08984375 10.13671875 C-2.39019531 10.75160156 -2.69054687 11.36648437 -3 12 C-3.99 11.01 -4.98 10.02 -6 9 C-5.34 7.68 -4.68 6.36 -4 5 C-4 5.66 -4 6.32 -4 7 C-3.34 7 -2.68 7 -2 7 C-2 5.35 -2 3.7 -2 2 C-1.34 2 -0.68 2 0 2 C0 1.34 0 0.68 0 0 Z " fill="#5EC8E4" transform="translate(641,58)"/>
<path d="M0 0 C0.33 0 0.66 0 1 0 C1.06058594 0.67546875 1.12117187 1.3509375 1.18359375 2.046875 C1.26738281 2.93890625 1.35117188 3.8309375 1.4375 4.75 C1.51871094 5.63171875 1.59992188 6.5134375 1.68359375 7.421875 C1.9338493 9.94513869 1.9338493 9.94513869 2.5625 12.125 C3.20609757 14.8832753 2.56045077 17.26001843 2 20 C1.67 20 1.34 20 1 20 C-0.03026944 13.30324864 -0.10152799 6.7685324 0 0 Z " fill="#69C2B4" transform="translate(214,11)"/>
<path d="M0 0 C1.65 0 3.3 0 5 0 C5 1.65 5 3.3 5 5 C3.35 5 1.7 5 0 5 C-0.33 4.34 -0.66 3.68 -1 3 C-0.67 2.01 -0.34 1.02 0 0 Z " fill="#0AB2E1" transform="translate(611,82)"/>
<path d="M0 0 C0.99 0 1.98 0 3 0 C2.34 2.97 1.68 5.94 1 9 C0.67 8.01 0.34 7.02 0 6 C-0.66 6 -1.32 6 -2 6 C-1.34 4.02 -0.68 2.04 0 0 Z " fill="#97D5C5" transform="translate(157,57)"/>
<path d="M0 0 C0.99 0.33 1.98 0.66 3 1 C3 2.65 3 4.3 3 6 C1.68 6 0.36 6 -1 6 C-1 5.34 -1 4.68 -1 4 C-1.99 3.67 -2.98 3.34 -4 3 C-2.68 2.67 -1.36 2.34 0 2 C0 1.34 0 0.68 0 0 Z " fill="#31BACD" transform="translate(441,82)"/>
<path d="M0 0 C1.98 0 3.96 0 6 0 C6 1.32 6 2.64 6 4 C4.02 4 2.04 4 0 4 C0 2.68 0 1.36 0 0 Z " fill="#7DC5AC" transform="translate(107,85)"/>
<path d="M0 0 C0.33 1.32 0.66 2.64 1 4 C0.01 4.33 -0.98 4.66 -2 5 C-2.33 5.99 -2.66 6.98 -3 8 C-4.32 7.67 -5.64 7.34 -7 7 C-6.21625 6.401875 -5.4325 5.80375 -4.625 5.1875 C-1.85425677 3.08914751 -1.85425677 3.08914751 0 0 Z " fill="#A2D8D4" transform="translate(267,61)"/>
<path d="M0 0 C2.12508244 3.18762365 2.5020163 5.26512223 3 9 C2.01 9 1.02 9 0 9 C0 6.03 0 3.06 0 0 Z " fill="#9FD8C8" transform="translate(133,35)"/>
<path d="M0 0 C0.66 0 1.32 0 2 0 C2.66 2.31 3.32 4.62 4 7 C2.0625 6.25 2.0625 6.25 0 5 C-0.8125 2.9375 -0.8125 2.9375 -1 1 C-0.67 0.67 -0.34 0.34 0 0 Z " fill="#62C7D5" transform="translate(424,74)"/>
<path d="M0 0 C3.57104439 1.87949705 5.54744301 3.17053157 7 7 C4.69 6.34 2.38 5.68 0 5 C0.66 4.67 1.32 4.34 2 4 C2 3.34 2 2.68 2 2 C1.34 2 0.68 2 0 2 C0 1.34 0 0.68 0 0 Z " fill="#84D0D8" transform="translate(371,49)"/>
<path d="M0 0 C0.33 0 0.66 0 1 0 C1.66 2.31 2.32 4.62 3 7 C2.01 7.495 2.01 7.495 1 8 C1 7.34 1 6.68 1 6 C0.34 6 -0.32 6 -1 6 C-1.33 6.99 -1.66 7.98 -2 9 C-2.33 8.34 -2.66 7.68 -3 7 C-2.06421005 4.64018187 -1.06652192 2.30368736 0 0 Z " fill="#7CCFD9" transform="translate(416,28)"/>
<path d="M0 0 C0.33 0 0.66 0 1 0 C1 1.98 1 3.96 1 6 C0.34 6 -0.32 6 -1 6 C-1.33 6.66 -1.66 7.32 -2 8 C-2.66 7.34 -3.32 6.68 -4 6 C-4 5.34 -4 4.68 -4 4 C-3.01 4 -2.02 4 -1 4 C-0.67 2.68 -0.34 1.36 0 0 Z " fill="#4DBEBB" transform="translate(288,40)"/>
<path d="M0 0 C2.50037734 2.17424117 3.43628586 3.73045798 4 7 C2.68 7 1.36 7 0 7 C0 4.69 0 2.38 0 0 Z " fill="#4EC2E3" transform="translate(635,24)"/>
<path d="M0 0 C0.33 0.66 0.66 1.32 1 2 C-0.25 4.5625 -0.25 4.5625 -2 7 C-2.99 7.33 -3.98 7.66 -5 8 C-3.8141763 4.62496331 -2.72426311 2.35277269 0 0 Z " fill="#84D2DB" transform="translate(422,20)"/>
<path d="M0 0 C2.375 0.25 2.375 0.25 5 1 C6.3125 3.0625 6.3125 3.0625 7 5 C4.625 4.75 4.625 4.75 2 4 C0.6875 1.9375 0.6875 1.9375 0 0 Z " fill="#4DC3E3" transform="translate(627,18)"/>
<path d="M0 0 C0.66 0 1.32 0 2 0 C1.67 2.31 1.34 4.62 1 7 C0.01 7.33 -0.98 7.66 -2 8 C-2.20086443 4.28400809 -2.1519437 3.22791555 0 0 Z " fill="#3EB9CE" transform="translate(415,34)"/>
<path d="M0 0 C0.94875 0.04125 1.8975 0.0825 2.875 0.125 C2.875 0.785 2.875 1.445 2.875 2.125 C-2.875 3.25 -2.875 3.25 -5.125 2.125 C-3.125 0.125 -3.125 0.125 0 0 Z " fill="#2FBACE" transform="translate(433.125,13.875)"/>
</svg>
